<mxfile host="app.diagrams.net" agent="Mozilla/5.0 (Windows NT 10.0; Win64; x64) AppleWebKit/537.36 (KHTML, like Gecko) Chrome/137.0.0.0 Safari/537.36" version="27.1.5">
  <diagram name="Page-1" id="zw1s-m7HMh5c7HNjSxE1">
    <mxGraphModel dx="872" dy="477" grid="1" gridSize="10" guides="1" tooltips="1" connect="1" arrows="1" fold="1" page="1" pageScale="1" pageWidth="850" pageHeight="1100" math="0" shadow="0">
      <root>
        <mxCell id="0" />
        <mxCell id="1" parent="0" />
        <mxCell id="A-e2i0W_gqjQRXDzDPfo-40" style="edgeStyle=orthogonalEdgeStyle;rounded=0;orthogonalLoop=1;jettySize=auto;html=1;exitX=0.5;exitY=0;exitDx=0;exitDy=0;strokeColor=#0B4D6A;" edge="1" parent="1" source="A-e2i0W_gqjQRXDzDPfo-2" target="A-e2i0W_gqjQRXDzDPfo-14">
          <mxGeometry relative="1" as="geometry" />
        </mxCell>
        <mxCell id="A-e2i0W_gqjQRXDzDPfo-41" style="edgeStyle=orthogonalEdgeStyle;rounded=0;orthogonalLoop=1;jettySize=auto;html=1;exitX=0.5;exitY=1;exitDx=0;exitDy=0;entryX=0.5;entryY=0;entryDx=0;entryDy=0;strokeColor=#0B4D6A;" edge="1" parent="1" source="A-e2i0W_gqjQRXDzDPfo-2" target="A-e2i0W_gqjQRXDzDPfo-15">
          <mxGeometry relative="1" as="geometry" />
        </mxCell>
        <mxCell id="A-e2i0W_gqjQRXDzDPfo-2" value="Air India" style="shape=ext;margin=3;double=1;whiteSpace=wrap;html=1;align=center;strokeColor=#BAC8D3;fontColor=#EEEEEE;fillColor=#09555B;" vertex="1" parent="1">
          <mxGeometry x="362.5" y="390" width="155" height="50" as="geometry" />
        </mxCell>
        <mxCell id="A-e2i0W_gqjQRXDzDPfo-27" style="edgeStyle=orthogonalEdgeStyle;rounded=0;orthogonalLoop=1;jettySize=auto;html=1;exitX=0;exitY=0.5;exitDx=0;exitDy=0;entryX=1;entryY=0.75;entryDx=0;entryDy=0;strokeColor=#0B4D6A;" edge="1" parent="1" source="A-e2i0W_gqjQRXDzDPfo-3" target="A-e2i0W_gqjQRXDzDPfo-9">
          <mxGeometry relative="1" as="geometry" />
        </mxCell>
        <mxCell id="A-e2i0W_gqjQRXDzDPfo-30" style="edgeStyle=orthogonalEdgeStyle;rounded=0;orthogonalLoop=1;jettySize=auto;html=1;entryX=1;entryY=0.5;entryDx=0;entryDy=0;strokeColor=#0B4D6A;exitX=0;exitY=0.5;exitDx=0;exitDy=0;" edge="1" parent="1" source="A-e2i0W_gqjQRXDzDPfo-3" target="A-e2i0W_gqjQRXDzDPfo-10">
          <mxGeometry relative="1" as="geometry">
            <mxPoint x="280" y="310" as="sourcePoint" />
          </mxGeometry>
        </mxCell>
        <mxCell id="A-e2i0W_gqjQRXDzDPfo-31" style="edgeStyle=orthogonalEdgeStyle;rounded=0;orthogonalLoop=1;jettySize=auto;html=1;exitX=0;exitY=1;exitDx=0;exitDy=0;entryX=1;entryY=0.5;entryDx=0;entryDy=0;strokeColor=#0B4D6A;" edge="1" parent="1" source="A-e2i0W_gqjQRXDzDPfo-3" target="A-e2i0W_gqjQRXDzDPfo-11">
          <mxGeometry relative="1" as="geometry" />
        </mxCell>
        <mxCell id="A-e2i0W_gqjQRXDzDPfo-3" value="Flight" style="ellipse;whiteSpace=wrap;html=1;align=center;strokeColor=#BAC8D3;fontColor=#EEEEEE;fillColor=#09555B;" vertex="1" parent="1">
          <mxGeometry x="240" y="230" width="110" height="40" as="geometry" />
        </mxCell>
        <mxCell id="A-e2i0W_gqjQRXDzDPfo-32" style="edgeStyle=orthogonalEdgeStyle;rounded=0;orthogonalLoop=1;jettySize=auto;html=1;exitX=0.5;exitY=0;exitDx=0;exitDy=0;entryX=0;entryY=0.5;entryDx=0;entryDy=0;strokeColor=#0B4D6A;" edge="1" parent="1" source="A-e2i0W_gqjQRXDzDPfo-4" target="A-e2i0W_gqjQRXDzDPfo-16">
          <mxGeometry relative="1" as="geometry" />
        </mxCell>
        <mxCell id="A-e2i0W_gqjQRXDzDPfo-37" style="edgeStyle=orthogonalEdgeStyle;rounded=0;orthogonalLoop=1;jettySize=auto;html=1;exitX=1;exitY=0;exitDx=0;exitDy=0;entryX=0;entryY=0.75;entryDx=0;entryDy=0;strokeColor=#0B4D6A;" edge="1" parent="1" source="A-e2i0W_gqjQRXDzDPfo-4" target="A-e2i0W_gqjQRXDzDPfo-17">
          <mxGeometry relative="1" as="geometry" />
        </mxCell>
        <mxCell id="A-e2i0W_gqjQRXDzDPfo-38" style="edgeStyle=orthogonalEdgeStyle;rounded=0;orthogonalLoop=1;jettySize=auto;html=1;exitX=1;exitY=0.5;exitDx=0;exitDy=0;entryX=0;entryY=0.5;entryDx=0;entryDy=0;strokeColor=#0B4D6A;" edge="1" parent="1" source="A-e2i0W_gqjQRXDzDPfo-4" target="A-e2i0W_gqjQRXDzDPfo-18">
          <mxGeometry relative="1" as="geometry" />
        </mxCell>
        <mxCell id="A-e2i0W_gqjQRXDzDPfo-39" style="edgeStyle=orthogonalEdgeStyle;rounded=0;orthogonalLoop=1;jettySize=auto;html=1;exitX=1;exitY=1;exitDx=0;exitDy=0;entryX=0;entryY=0.5;entryDx=0;entryDy=0;strokeColor=#0B4D6A;" edge="1" parent="1" source="A-e2i0W_gqjQRXDzDPfo-4" target="A-e2i0W_gqjQRXDzDPfo-19">
          <mxGeometry relative="1" as="geometry" />
        </mxCell>
        <mxCell id="A-e2i0W_gqjQRXDzDPfo-4" value="Aircraft" style="ellipse;whiteSpace=wrap;html=1;align=center;strokeColor=#BAC8D3;fontColor=#EEEEEE;fillColor=#09555B;" vertex="1" parent="1">
          <mxGeometry x="510" y="220" width="100" height="40" as="geometry" />
        </mxCell>
        <mxCell id="A-e2i0W_gqjQRXDzDPfo-26" style="edgeStyle=orthogonalEdgeStyle;rounded=0;orthogonalLoop=1;jettySize=auto;html=1;exitX=0.37;exitY=-0.025;exitDx=0;exitDy=0;strokeColor=#0B4D6A;exitPerimeter=0;entryX=1;entryY=0.5;entryDx=0;entryDy=0;" edge="1" parent="1" source="A-e2i0W_gqjQRXDzDPfo-3" target="A-e2i0W_gqjQRXDzDPfo-8">
          <mxGeometry relative="1" as="geometry">
            <mxPoint x="260" y="170" as="targetPoint" />
          </mxGeometry>
        </mxCell>
        <mxCell id="A-e2i0W_gqjQRXDzDPfo-8" value="FlightID" style="whiteSpace=wrap;html=1;align=center;strokeColor=#BAC8D3;fontColor=#EEEEEE;fillColor=#09555B;" vertex="1" parent="1">
          <mxGeometry x="110" y="180" width="100" height="40" as="geometry" />
        </mxCell>
        <mxCell id="A-e2i0W_gqjQRXDzDPfo-9" value="Date&amp;nbsp;" style="whiteSpace=wrap;html=1;align=center;strokeColor=#BAC8D3;fontColor=#EEEEEE;fillColor=#09555B;" vertex="1" parent="1">
          <mxGeometry x="110" y="250" width="100" height="40" as="geometry" />
        </mxCell>
        <mxCell id="A-e2i0W_gqjQRXDzDPfo-10" value="Arrival" style="whiteSpace=wrap;html=1;align=center;strokeColor=#BAC8D3;fontColor=#EEEEEE;fillColor=#09555B;" vertex="1" parent="1">
          <mxGeometry x="110" y="330" width="100" height="40" as="geometry" />
        </mxCell>
        <mxCell id="A-e2i0W_gqjQRXDzDPfo-11" value="Departure" style="whiteSpace=wrap;html=1;align=center;strokeColor=#BAC8D3;fontColor=#EEEEEE;fillColor=#09555B;" vertex="1" parent="1">
          <mxGeometry x="110" y="400" width="100" height="40" as="geometry" />
        </mxCell>
        <mxCell id="A-e2i0W_gqjQRXDzDPfo-13" style="edgeStyle=orthogonalEdgeStyle;rounded=0;orthogonalLoop=1;jettySize=auto;html=1;exitX=0.5;exitY=1;exitDx=0;exitDy=0;entryX=0.11;entryY=1;entryDx=0;entryDy=0;entryPerimeter=0;strokeColor=#0B4D6A;" edge="1" parent="1" source="A-e2i0W_gqjQRXDzDPfo-11" target="A-e2i0W_gqjQRXDzDPfo-11">
          <mxGeometry relative="1" as="geometry" />
        </mxCell>
        <mxCell id="A-e2i0W_gqjQRXDzDPfo-22" style="edgeStyle=orthogonalEdgeStyle;rounded=0;orthogonalLoop=1;jettySize=auto;html=1;exitX=1;exitY=0.5;exitDx=0;exitDy=0;strokeColor=#0B4D6A;" edge="1" parent="1" source="A-e2i0W_gqjQRXDzDPfo-14" target="A-e2i0W_gqjQRXDzDPfo-4">
          <mxGeometry relative="1" as="geometry" />
        </mxCell>
        <mxCell id="A-e2i0W_gqjQRXDzDPfo-14" value="Flight" style="rhombus;whiteSpace=wrap;html=1;strokeColor=#BAC8D3;fontColor=#EEEEEE;fillColor=#09555B;" vertex="1" parent="1">
          <mxGeometry x="400" y="270" width="80" height="80" as="geometry" />
        </mxCell>
        <mxCell id="A-e2i0W_gqjQRXDzDPfo-53" style="edgeStyle=orthogonalEdgeStyle;rounded=0;orthogonalLoop=1;jettySize=auto;html=1;exitX=0;exitY=0.5;exitDx=0;exitDy=0;strokeColor=#0B4D6A;" edge="1" parent="1" source="A-e2i0W_gqjQRXDzDPfo-15" target="A-e2i0W_gqjQRXDzDPfo-48">
          <mxGeometry relative="1" as="geometry" />
        </mxCell>
        <mxCell id="A-e2i0W_gqjQRXDzDPfo-58" style="edgeStyle=orthogonalEdgeStyle;rounded=0;orthogonalLoop=1;jettySize=auto;html=1;exitX=1;exitY=0.5;exitDx=0;exitDy=0;entryX=0;entryY=0.75;entryDx=0;entryDy=0;strokeColor=#0B4D6A;" edge="1" parent="1" source="A-e2i0W_gqjQRXDzDPfo-15" target="A-e2i0W_gqjQRXDzDPfo-49">
          <mxGeometry relative="1" as="geometry" />
        </mxCell>
        <mxCell id="A-e2i0W_gqjQRXDzDPfo-15" value="passenger" style="rhombus;whiteSpace=wrap;html=1;strokeColor=#BAC8D3;fontColor=#EEEEEE;fillColor=#09555B;" vertex="1" parent="1">
          <mxGeometry x="407.5" y="580" width="80" height="80" as="geometry" />
        </mxCell>
        <mxCell id="A-e2i0W_gqjQRXDzDPfo-16" value="AirlinesID" style="whiteSpace=wrap;html=1;align=center;strokeColor=#BAC8D3;fontColor=#EEEEEE;fillColor=#09555B;" vertex="1" parent="1">
          <mxGeometry x="720" y="180" width="100" height="40" as="geometry" />
        </mxCell>
        <mxCell id="A-e2i0W_gqjQRXDzDPfo-17" value="AircraftID" style="whiteSpace=wrap;html=1;align=center;strokeColor=#BAC8D3;fontColor=#EEEEEE;fillColor=#09555B;" vertex="1" parent="1">
          <mxGeometry x="720" y="250" width="100" height="40" as="geometry" />
        </mxCell>
        <mxCell id="A-e2i0W_gqjQRXDzDPfo-18" value="Capacity" style="whiteSpace=wrap;html=1;align=center;strokeColor=#BAC8D3;fontColor=#EEEEEE;fillColor=#09555B;" vertex="1" parent="1">
          <mxGeometry x="720" y="320" width="100" height="40" as="geometry" />
        </mxCell>
        <mxCell id="A-e2i0W_gqjQRXDzDPfo-19" value="Maintenance" style="whiteSpace=wrap;html=1;align=center;strokeColor=#BAC8D3;fontColor=#EEEEEE;fillColor=#09555B;" vertex="1" parent="1">
          <mxGeometry x="720" y="390" width="100" height="40" as="geometry" />
        </mxCell>
        <mxCell id="A-e2i0W_gqjQRXDzDPfo-21" value="" style="endArrow=classic;html=1;rounded=0;strokeColor=#0B4D6A;entryX=1;entryY=0.5;entryDx=0;entryDy=0;exitX=0;exitY=0.5;exitDx=0;exitDy=0;" edge="1" parent="1" source="A-e2i0W_gqjQRXDzDPfo-14" target="A-e2i0W_gqjQRXDzDPfo-3">
          <mxGeometry width="50" height="50" relative="1" as="geometry">
            <mxPoint x="390" y="310" as="sourcePoint" />
            <mxPoint x="450" y="270" as="targetPoint" />
            <Array as="points">
              <mxPoint x="350" y="310" />
            </Array>
          </mxGeometry>
        </mxCell>
        <mxCell id="A-e2i0W_gqjQRXDzDPfo-42" value="Name" style="ellipse;whiteSpace=wrap;html=1;align=center;strokeColor=#BAC8D3;fontColor=#EEEEEE;fillColor=#09555B;" vertex="1" parent="1">
          <mxGeometry x="70" y="520" width="100" height="40" as="geometry" />
        </mxCell>
        <mxCell id="A-e2i0W_gqjQRXDzDPfo-43" value="age&amp;nbsp;" style="ellipse;whiteSpace=wrap;html=1;align=center;strokeColor=#BAC8D3;fontColor=#EEEEEE;fillColor=#09555B;" vertex="1" parent="1">
          <mxGeometry x="70" y="640" width="100" height="40" as="geometry" />
        </mxCell>
        <mxCell id="A-e2i0W_gqjQRXDzDPfo-44" value="gender" style="ellipse;whiteSpace=wrap;html=1;align=center;strokeColor=#BAC8D3;fontColor=#EEEEEE;fillColor=#09555B;" vertex="1" parent="1">
          <mxGeometry x="80" y="770" width="100" height="40" as="geometry" />
        </mxCell>
        <mxCell id="A-e2i0W_gqjQRXDzDPfo-45" value="gender" style="ellipse;whiteSpace=wrap;html=1;align=center;strokeColor=#BAC8D3;fontColor=#EEEEEE;fillColor=#09555B;" vertex="1" parent="1">
          <mxGeometry x="730" y="780" width="100" height="40" as="geometry" />
        </mxCell>
        <mxCell id="A-e2i0W_gqjQRXDzDPfo-46" value="age" style="ellipse;whiteSpace=wrap;html=1;align=center;strokeColor=#BAC8D3;fontColor=#EEEEEE;fillColor=#09555B;" vertex="1" parent="1">
          <mxGeometry x="720" y="650" width="100" height="40" as="geometry" />
        </mxCell>
        <mxCell id="A-e2i0W_gqjQRXDzDPfo-47" value="name" style="ellipse;whiteSpace=wrap;html=1;align=center;strokeColor=#BAC8D3;fontColor=#EEEEEE;fillColor=#09555B;" vertex="1" parent="1">
          <mxGeometry x="730" y="520" width="100" height="40" as="geometry" />
        </mxCell>
        <mxCell id="A-e2i0W_gqjQRXDzDPfo-54" style="edgeStyle=orthogonalEdgeStyle;rounded=0;orthogonalLoop=1;jettySize=auto;html=1;exitX=0;exitY=0.5;exitDx=0;exitDy=0;strokeColor=#0B4D6A;" edge="1" parent="1" source="A-e2i0W_gqjQRXDzDPfo-48" target="A-e2i0W_gqjQRXDzDPfo-43">
          <mxGeometry relative="1" as="geometry" />
        </mxCell>
        <mxCell id="A-e2i0W_gqjQRXDzDPfo-55" style="edgeStyle=orthogonalEdgeStyle;rounded=0;orthogonalLoop=1;jettySize=auto;html=1;exitX=0;exitY=1;exitDx=0;exitDy=0;entryX=0.5;entryY=0;entryDx=0;entryDy=0;strokeColor=#0B4D6A;" edge="1" parent="1" source="A-e2i0W_gqjQRXDzDPfo-48" target="A-e2i0W_gqjQRXDzDPfo-44">
          <mxGeometry relative="1" as="geometry" />
        </mxCell>
        <mxCell id="A-e2i0W_gqjQRXDzDPfo-56" style="edgeStyle=orthogonalEdgeStyle;rounded=0;orthogonalLoop=1;jettySize=auto;html=1;exitX=0;exitY=0;exitDx=0;exitDy=0;entryX=1;entryY=0.5;entryDx=0;entryDy=0;strokeColor=#0B4D6A;" edge="1" parent="1" source="A-e2i0W_gqjQRXDzDPfo-48" target="A-e2i0W_gqjQRXDzDPfo-42">
          <mxGeometry relative="1" as="geometry" />
        </mxCell>
        <mxCell id="A-e2i0W_gqjQRXDzDPfo-48" value="Passengers" style="rounded=1;arcSize=10;whiteSpace=wrap;html=1;align=center;strokeColor=#BAC8D3;fontColor=#EEEEEE;fillColor=#09555B;" vertex="1" parent="1">
          <mxGeometry x="230" y="620" width="100" height="40" as="geometry" />
        </mxCell>
        <mxCell id="A-e2i0W_gqjQRXDzDPfo-60" style="edgeStyle=orthogonalEdgeStyle;rounded=0;orthogonalLoop=1;jettySize=auto;html=1;exitX=1;exitY=0.5;exitDx=0;exitDy=0;strokeColor=#0B4D6A;entryX=0.5;entryY=0;entryDx=0;entryDy=0;" edge="1" parent="1" source="A-e2i0W_gqjQRXDzDPfo-49" target="A-e2i0W_gqjQRXDzDPfo-46">
          <mxGeometry relative="1" as="geometry">
            <mxPoint x="790" y="640" as="targetPoint" />
          </mxGeometry>
        </mxCell>
        <mxCell id="A-e2i0W_gqjQRXDzDPfo-62" style="edgeStyle=orthogonalEdgeStyle;rounded=0;orthogonalLoop=1;jettySize=auto;html=1;exitX=1;exitY=0;exitDx=0;exitDy=0;entryX=0;entryY=0.5;entryDx=0;entryDy=0;strokeColor=#0B4D6A;" edge="1" parent="1" source="A-e2i0W_gqjQRXDzDPfo-49" target="A-e2i0W_gqjQRXDzDPfo-47">
          <mxGeometry relative="1" as="geometry" />
        </mxCell>
        <mxCell id="A-e2i0W_gqjQRXDzDPfo-63" style="edgeStyle=orthogonalEdgeStyle;rounded=0;orthogonalLoop=1;jettySize=auto;html=1;exitX=0.75;exitY=1;exitDx=0;exitDy=0;entryX=0;entryY=0;entryDx=0;entryDy=0;strokeColor=#0B4D6A;" edge="1" parent="1" source="A-e2i0W_gqjQRXDzDPfo-49" target="A-e2i0W_gqjQRXDzDPfo-51">
          <mxGeometry relative="1" as="geometry" />
        </mxCell>
        <mxCell id="A-e2i0W_gqjQRXDzDPfo-49" value="crew members" style="rounded=1;arcSize=10;whiteSpace=wrap;html=1;align=center;strokeColor=#BAC8D3;fontColor=#EEEEEE;fillColor=#09555B;" vertex="1" parent="1">
          <mxGeometry x="580" y="620" width="100" height="40" as="geometry" />
        </mxCell>
        <mxCell id="A-e2i0W_gqjQRXDzDPfo-50" value="Status" style="ellipse;whiteSpace=wrap;html=1;align=center;strokeColor=#BAC8D3;fontColor=#EEEEEE;fillColor=#09555B;" vertex="1" parent="1">
          <mxGeometry x="140" y="890" width="100" height="40" as="geometry" />
        </mxCell>
        <mxCell id="A-e2i0W_gqjQRXDzDPfo-51" value="Status" style="ellipse;whiteSpace=wrap;html=1;align=center;strokeColor=#BAC8D3;fontColor=#EEEEEE;fillColor=#09555B;" vertex="1" parent="1">
          <mxGeometry x="650" y="870" width="130" height="40" as="geometry" />
        </mxCell>
        <mxCell id="A-e2i0W_gqjQRXDzDPfo-57" style="edgeStyle=orthogonalEdgeStyle;rounded=0;orthogonalLoop=1;jettySize=auto;html=1;exitX=0.25;exitY=1;exitDx=0;exitDy=0;entryX=0.43;entryY=-0.05;entryDx=0;entryDy=0;entryPerimeter=0;strokeColor=#0B4D6A;" edge="1" parent="1" source="A-e2i0W_gqjQRXDzDPfo-48" target="A-e2i0W_gqjQRXDzDPfo-50">
          <mxGeometry relative="1" as="geometry" />
        </mxCell>
        <mxCell id="A-e2i0W_gqjQRXDzDPfo-61" style="edgeStyle=orthogonalEdgeStyle;rounded=0;orthogonalLoop=1;jettySize=auto;html=1;exitX=1;exitY=1;exitDx=0;exitDy=0;entryX=0.3;entryY=0;entryDx=0;entryDy=0;entryPerimeter=0;strokeColor=#0B4D6A;" edge="1" parent="1" source="A-e2i0W_gqjQRXDzDPfo-49" target="A-e2i0W_gqjQRXDzDPfo-45">
          <mxGeometry relative="1" as="geometry" />
        </mxCell>
      </root>
    </mxGraphModel>
  </diagram>
</mxfile>
